<?xml version="1.0" encoding="UTF-8"?>
<!DOCTYPE svg PUBLIC "-//W3C//DTD SVG 1.0//EN" "http://www.w3.org/TR/2001/REC-SVG-20010904/DTD/svg10.dtd">
<!-- Creator: CorelDRAW -->
<svg xmlns="http://www.w3.org/2000/svg" xml:space="preserve" width="1000px" height="1000px" version="1.0" shape-rendering="geometricPrecision" text-rendering="geometricPrecision" image-rendering="optimizeQuality" fill-rule="evenodd" clip-rule="evenodd"
viewBox="0 0 1000 1000"
 xmlns:xlink="http://www.w3.org/1999/xlink"
 xmlns:xodm="http://www.corel.com/coreldraw/odm/2003">
 <g id="Layer_x0020_1">
  <metadata id="CorelCorpID_0Corel-Layer"/>
  <circle fill="#FEFEFE" cx="500" cy="500" r="500"/>
  <circle fill="#FEFEFE" cx="500" cy="500" r="500"/>
  <g id="_2523980521616">
   <path fill="#332C2B" fill-rule="nonzero" d="M294.55 250.68c13.87,13.15 28.46,20.58 43.94,22.1 15.39,1.61 30.6,-2.15 45.37,-11.36 14.85,-9.31 36.95,-28.37 66.3,-57.36 29.26,-29.08 48.95,-47.87 59.06,-56.37 16.28,-13.06 30.87,-21.92 44.11,-26.58 13.07,-4.65 25.5,-6.53 37.14,-5.63 11.54,0.98 23.71,4.92 36.23,11.9 8.33,4.92 19.96,14.76 34.99,29.79l14.59 14.59 -41.34 41.34 -8.06 -8.05c-17.98,-17.99 -33.19,-26.58 -45.63,-25.95 -12.35,0.71 -29.89,12.35 -52.62,35.07 -45.72,45.73 -75.61,73.65 -89.65,83.76 -21.84,15.57 -41.7,24.51 -59.42,27.02 -17.81,2.42 -38.83,-0.54 -63.08,-9.22 11.36,27.47 13.15,53.78 5.46,79.01 -7.79,25.15 -30.43,56.56 -67.92,94.05 -34,34 -54.05,54.4 -60.13,61.2 -10.47,13.33 -15.21,25.06 -14.32,35.44 0.99,10.47 9.76,23.89 26.31,40.44l8.14 8.14 -41.34 41.34 -14.67 -14.67c-17.09,-17.09 -28.1,-30.96 -33.02,-41.43 -7.07,-15.12 -9.93,-30.87 -8.23,-47.25 1.61,-16.28 8.23,-32.39 19.86,-48.32 11.55,-16.01 33.02,-39.81 64.25,-71.4 31.23,-31.59 51.45,-54.85 60.67,-69.62 9.3,-14.85 13.24,-29.88 11.81,-45.27 -1.52,-15.48 -8.68,-29.98 -21.75,-43.76l42.95 -42.95z"/>
   <path fill="#332C2B" fill-rule="nonzero" d="M750.08 706.2l-42.96 42.95c-13.86,-13.15 -28.54,-20.49 -44.02,-22.01 -15.48,-1.52 -30.69,2.24 -45.37,11.36 -14.76,9.22 -36.77,28.19 -66.12,57.18 -29.26,29.08 -48.86,47.78 -58.97,56.28 -16.37,13.16 -31.05,22.11 -44.2,26.67 -13.07,4.47 -25.41,6.26 -37.13,5.28 -11.55,-0.99 -23.72,-4.92 -36.33,-11.99 -8.51,-4.74 -20.32,-14.59 -35.44,-29.71l-14.67 -14.67 41.34 -41.34 8.14 8.14c18.16,18.16 33.46,26.84 45.99,26.31 12.44,-0.63 30.07,-12.35 52.88,-35.17 43.67,-43.67 71.95,-70.51 85.1,-80.8 22.1,-16.55 43.22,-26.4 63.26,-29.62 20.13,-3.13 40.98,-0.18 63,8.77 -10.74,-29.88 -12.35,-56.91 -4.93,-80.98 7.52,-24.16 30.07,-54.94 67.65,-92.52 34,-34 54.23,-54.58 60.49,-61.56 10.38,-12.89 15.21,-24.52 14.05,-34.81 -1.08,-10.38 -9.93,-23.89 -26.58,-40.53l-8.14 -8.15 41.34 -41.34 14.68 14.68c17.09,17.09 28.09,30.96 33.01,41.43 7.34,15.03 10.11,30.69 8.32,47.15 -1.7,16.38 -8.41,32.57 -20.04,48.5 -11.54,16.02 -33.02,39.82 -64.34,71.5 -31.22,31.58 -51.45,54.85 -60.57,69.52 -9.22,14.77 -12.98,29.98 -11.46,45.46 1.52,15.48 8.86,30.15 22.02,44.02z"/>
   <path fill="#332C2B" d="M441.91 398.53c-21.65,21.65 -32.5,50.26 -32.54,78.91l0 0.08 0 0.07c0.04,28.66 10.89,57.27 32.54,78.92l0.01 0c9.46,9.47 20.23,16.87 31.75,22.22l41.3 -41.31c0.84,-0.83 1.62,-1.69 2.36,-2.59 -13.54,-0.83 -26.83,-6.38 -37.09,-16.64l-0.01 0c-11.21,-11.22 -16.82,-25.93 -16.82,-40.6l0 -0.15c0,-14.66 5.61,-29.38 16.82,-40.59l92.15 -92.15c11.21,-11.21 25.93,-16.82 40.59,-16.82l0.16 0c14.66,0 29.37,5.61 40.59,16.82l0 0.01c11.17,11.16 16.75,25.9 16.75,40.67 0,14.75 -5.58,29.5 -16.75,40.67l-41.82 41.82c4.64,13.56 7.06,27.93 7.06,42.57 0,10.41 -1.23,20.67 -3.6,30.61l76.68 -76.68c21.75,-21.74 32.62,-50.39 32.62,-78.99 0,-28.62 -10.87,-57.25 -32.62,-78.99l0 -0.01c-21.65,-21.65 -50.26,-32.5 -78.91,-32.54l-0.08 0 -0.08 0c-28.65,0.04 -57.26,10.89 -78.92,32.54l-92.14 92.15zm-125.07 125.06l76.91 -76.9c-2.39,9.93 -3.64,20.19 -3.73,30.58l0 0.32c0,14.61 2.39,28.94 7,42.47l-41.86 41.86c-11.21,11.21 -16.82,25.93 -16.82,40.59l0 0.15c0,14.67 5.61,29.38 16.82,40.6l0.01 0c11.16,11.16 25.91,16.75 40.67,16.75 14.76,0 29.51,-5.59 40.67,-16.75l92.14 -92.15c11.17,-11.16 16.75,-25.91 16.76,-40.67 0,-14.76 -5.59,-29.5 -16.76,-40.67l0 0c-10.31,-10.31 -23.57,-15.88 -37.03,-16.71 0.73,-0.87 1.49,-1.71 2.3,-2.52l41.28 -41.28c11.53,5.34 22.32,12.73 31.77,22.19l0.01 0c21.74,21.75 32.61,50.38 32.61,78.99 0.01,28.6 -10.87,57.25 -32.61,79l-92.15 92.14c-21.74,21.74 -50.39,32.62 -78.99,32.62 -28.62,0 -57.25,-10.88 -78.99,-32.62l-0.01 0c-21.65,-21.66 -32.49,-50.26 -32.53,-78.92l0 -0.07 0 -0.08c0.04,-28.65 10.88,-57.26 32.53,-78.92l0 0z"/>
  </g>
 </g>
</svg>
